<svg xmlns="http://www.w3.org/2000/svg" viewBox="0 0 48 60" x="0px" y="0px">
    <path d="M11,33.93A1.08,1.08,0,0,0,12.08,35H35.92A1.08,1.08,0,0,0,37,33.93V22l-.65-.63a5.73,5.73,0,0,0-1.87-1,5.91,5.91,0,0,0-5.9,1.38l-2.64,2.56-1.28,1.24-1.09,1.08-.1.1a.82.82,0,0,1-.51.16.91.91,0,0,1-.52-.16l-1.39-1.36h0a3.78,3.78,0,0,0-5.21,0L11,30.05Z"/>
    <path d="M18,22a3,3,0,1,0-3-3A3,3,0,0,0,18,22Z"/>
    <path d="M40,26a1,1,0,0,0,1-1V13a4,4,0,0,0-4-4H11a4,4,0,0,0-4,4V35a4,4,0,0,0,4,4H37a4,4,0,0,0,4-4V30a1,1,0,0,0-2,0v5a2,2,0,0,1-2,2H11a2,2,0,0,1-2-2V13a2,2,0,0,1,2-2H37a2,2,0,0,1,2,2V25A1,1,0,0,0,40,26Z"/>

</svg>